# xmcd CD database file
#
# Track frame offsets:
#	183
#	25280
#	46505
#
# Disc length: 1067 seconds
#
# Revision: 0
# Processed by: cddbd v1.5.1PL0 Copyright (c) Steve Scherf et al.
# Submitted via: CDex 1.51
#
DISCID=17042903
DTITLE=THUNDER - She's So Fine (EP)
DYEAR=1990
DGENRE=Hard Rock
TTITLE0=She's So Fine (LP Version)
TTITLE1=Back Street Symphony (LIVE)
TTITLE2=Don't Wait For Me (LIVE)
EXTD=YEAR: 1990
EXTT0=
EXTT1=
EXTT2=
PLAYORDER=
